<?xml version="1.0" encoding="UTF-8" standalone="no"?>
<!-- Created with Inkscape (http://www.inkscape.org/) -->
<svg xmlns="http://www.w3.org/2000/svg" xmlns:svg="http://www.w3.org/2000/svg" width="1440"
  height="2215" viewBox="0 1860 1440 2215" version="1.1" id="svg1" xml:space="preserve">
  <defs id="defs1"/>
  <g id="layer_garage" data-floor="garage">
    <g id="layer_garage_background">
      <image width="1440" height="2215" preserveAspectRatio="none" style="image-rendering:optimizeQuality" href="/local/home-floorplan/images/garage.png" id="garage_img_day" x="0" y="1860" class="render-img" data-mode="day"/>
      <image width="1440" height="2215" preserveAspectRatio="none" style="display:inline;image-rendering:optimizeQuality" href="/local/home-floorplan/images/garage_n.png" id="garage_img_night" x="0" y="1860" class="render-img" data-mode="night"/>
    </g>
    <g id="layer_garage_interattivo">
      <g id="layer_garage_interattivo_sensor">
        <text xml:space="preserve" style="font-style:normal;font-variant:normal;font-weight:bold;font-stretch:normal;font-size:42.6667px;font-family:'Avenir Next';-inkscape-font-specification:'Avenir Next Bold';writing-mode:lr-tb;direction:ltr;opacity:0.299712;fill:#ffffff;fill-opacity:1;stroke-width:37.3333;stroke-opacity:0.194444;paint-order:stroke fill markers" x="74.381256" y="1998.5493" id="sensor_vasca_irrigazione" class="sensor impianto-idrico vasca-raccolta">
          <tspan id="tspan3" x="74.381256" y="1998.5493">100%</tspan>
        </text>
        <text xml:space="preserve" style="font-style:normal;font-variant:normal;font-weight:bold;font-stretch:normal;font-size:42.6667px;font-family:'Avenir Next';-inkscape-font-specification:'Avenir Next Bold';writing-mode:lr-tb;direction:ltr;opacity:0.299712;fill:#ffffff;fill-opacity:1;stroke-width:37.3333;stroke-opacity:0.194444;paint-order:stroke fill markers" x="74.381256" y="2088.5493" id="sensor_vasca_sanitari" class="sensor impianto-idrico vasca-raccolta">
          <tspan id="tspan4" x="74.381256" y="2088.5493">100%</tspan>
        </text>
      </g>
      <g id="layer_garage_interattivo_power">
        <ellipse style="display:inline;opacity:0.299712;fill:#00aaff;fill-opacity:1;stroke:#000000;stroke-width:3.15072;stroke-dasharray:none;stroke-opacity:0.502315" id="irrigazione" cx="816.34314" cy="2080" rx="43.65683" ry="41.699219" class="power impianto-idrico irrigazione"/>
        <ellipse style="display:inline;opacity:0.299712;fill:#00aaff;fill-opacity:1;stroke:#000000;stroke-width:2.78626;stroke-dasharray:none;stroke-opacity:0.502315" id="power_pompa_vasca_irrigazione" cx="240" cy="1983.1243" rx="38.606869" ry="36.875702" class="power impianto-idrico"/>
        <ellipse style="display:inline;opacity:0.299712;fill:#00aaff;fill-opacity:1;stroke:#000000;stroke-width:2.78626;stroke-dasharray:none;stroke-opacity:0.502315" id="power_pompa_vasca_sanitari" cx="241.39313" cy="2070" rx="38.606869" ry="36.875702" class="power impianto-idrico"/>
      </g>
      <g id="layer_garage_interattivo_media"/>
      <g id="layer_garage_interattivo_light">
        <g id="light_areas">
          <path fill="#0000ff" d="m 940.64335,3880.2969 3.5779,98.648 5.62248,0.5111 -2.04455,47.0239 453.88512,1.5333 v -147.2056 z" 
            id="light_cancelli"
            class="light"
            data-entity="light.cancelli"
            data-zone="esterno"/>
          <path fill="#800000" d="m 755.27073,1947.6175 651.57837,4.2212 -3.3717,545.3703 -650.73544,-3.3773 z"
            id="light_garage"
            class="light"
            data-entity="light.garage"
            data-zone="interno"/>
          <g id="light_vialetto_carraio" class="light" data-entity="light.vialetto_carraio" data-zone="esterno">
            <path fill="#0000ff" d="m 575.86796,2510.5409 h 91.08051 l -0.1169,13.6276 744.76813,4.2976 -3.3808,526.6637 -838.57951,-0.8078 z"/>
            <path fill="#0000ff" d="m 582.24281,1860 -6.37485,650.5409 h 91.08051 l 1.17955,-296.364 -1.17955,-0.3262 3.60207,-290.3168 52.02972,0.4614 0,-8.6739 307.32884,2.4142 -0.4653,-57.7356 z"/>
          </g>
        </g>
      </g>
      <g id="layer_garage_interattivo_cover">
        <path
          d="m 775.57365,2476.6403 258.71885,1.2779"
          id="sensor_serranda_garage_ovest"
          data-entity="cover.garage_ovest"
          data-type="serranda"
          class="serranda garage"/>
        <path
          d="m 1097.6413,2477.8924 259.4872,0.9188"
          id="sensor_serranda_garage_est"
          data-entity="cover.garage_est"
          data-type="serranda"
          class="serranda garage"/>
        <path
          d="m 1039.1019,3832.2581 364.851,-0.5582"
          id="sensor_cancello_carrabile"
          data-entity="cover.cancello_carrabile"
          data-type="cancello"
          class="cancello"/>
      </g>
      <g id="layer_garage_interattivo_climate"/>
      <g id="layer_garage_interattivo_binary_sensor" style="display:inline;fill:#ffcc00">
        <circle
          id="binary_sensor_porta_garage"
          cx="980"
          cy="1975"
          r="15"
          data-entity="binary_sensor.porta_garage"
          data-type="porta"
          class="binary-sensor sensori-porte"/>
        <circle
          id="binary_sensor_cancello_pedonale"
          cx="899"
          cy="3915"
          r="15"
          data-entity="binary_sensor.cancello_pedonale"
          data-type="cancello"
          class="binary-sensor sensori-porte" />
      </g>
      <g id="layer_garage_interattivo_button">
        <g id="light_buttons">
          <path 
            id="btn_light_cancelli"
            class="light-button"
            data-entity="light.cancelli"
            d="m 1365.3415,3943.6396 a 28.199935,27.242213 0 0 1 28.1999,27.2422 c 0,9.2623 -4.794,17.3961 -12.0857,22.3386 v 8.7953 a 4.0285622,3.8917446 0 0 1 -4.0285,3.8919 h -24.1714 a 4.0285622,3.8917446 0 0 1 -4.0285,-3.8919 v -8.7953 c -7.2917,-4.9425 -12.0857,-13.0763 -12.0857,-22.3386 a 28.199935,27.242213 0 0 1 28.1999,-27.2422 m -12.0857,73.9431 v -3.8918 h 24.1714 v 3.8918 a 4.0285622,3.8917446 0 0 1 -4.0287,3.8917 h -16.114 a 4.0285622,3.8917446 0 0 1 -4.0287,-3.8917 m 12.0857,-66.1596 a 20.142811,19.458723 0 0 0 -20.1429,19.4587 c 0,7.978 4.9553,14.8276 12.0859,17.8242 v 9.4178 h 16.114 v -9.4178 c 7.1306,-2.9966 12.0859,-9.8462 12.0859,-17.8242 a 20.142811,19.458723 0 0 0 -20.1429,-19.4587 z"/>
          <path
            id="btn_light_garage"
            class="light-button"
            data-entity="light.garage"
            d="m 1344.7004,1969.2111 a 28.199935,27.242213 0 0 1 28.1999,27.2422 c 0,9.2623 -4.794,17.3961 -12.0857,22.3386 v 8.7953 a 4.0285622,3.8917446 0 0 1 -4.0285,3.8919 h -24.1714 a 4.0285622,3.8917446 0 0 1 -4.0285,-3.8919 v -8.7953 c -7.2917,-4.9425 -12.0857,-13.0763 -12.0857,-22.3386 a 28.199935,27.242213 0 0 1 28.1999,-27.2422 m -12.0857,73.9431 v -3.8918 h 24.1714 v 3.8918 a 4.0285622,3.8917446 0 0 1 -4.0287,3.8917 h -16.114 a 4.0285622,3.8917446 0 0 1 -4.0287,-3.8917 m 12.0857,-66.1596 a 20.142811,19.458723 0 0 0 -20.1429,19.4587 c 0,7.978 4.9553,14.8276 12.0859,17.8242 v 9.4178 h 16.114 v -9.4178 c 7.1306,-2.9966 12.0859,-9.8462 12.0859,-17.8242 a 20.142811,19.458723 0 0 0 -20.1429,-19.4587 z"/>
        </g>
      </g>
    </g>
    <g id="layer_garage_label">
      <text xml:space="preserve" style="font-style:normal;font-variant:normal;font-weight:normal;font-stretch:normal;font-size:18.6667px;font-family:'Avenir Next';-inkscape-font-specification:'Avenir Next';writing-mode:lr-tb;direction:ltr;display:inline;opacity:0.299712;fill:#ffffff;fill-opacity:1;stroke-width:37.3333;stroke-opacity:0.194444;paint-order:stroke fill markers" x="9.5275707" y="1958.552" id="label_garage_vasca_irrigazione">
        <tspan id="tspan1" x="9.5275707" y="1958.552" style="font-size:18px;fill:#ffffff;fill-opacity:1">VASCA IRRIGAZIONE:</tspan>
      </text>
      <text xml:space="preserve" style="font-style:normal;font-variant:normal;font-weight:normal;font-stretch:normal;font-size:18.6667px;font-family:'Avenir Next';-inkscape-font-specification:'Avenir Next';writing-mode:lr-tb;direction:ltr;display:inline;opacity:0.299712;fill:#ffffff;fill-opacity:1;stroke-width:37.3333;stroke-opacity:0.194444;paint-order:stroke fill markers" x="9.9439955" y="2048.552" id="label_garage_vasca_sanitari">
        <tspan id="tspan2" x="9.9439955" y="2048.552" style="font-size:18px;fill:#ffffff;fill-opacity:1">VASCA SANITARI:</tspan>
      </text>
    </g>
  </g>
</svg>