<?xml version="1.0" encoding="UTF-8" standalone="no"?>
<!-- Created with Inkscape (http://www.inkscape.org/) -->

<svg
   width="1440"
   height="1860"
   viewBox="0 0 1440 1860"
   version="1.1"
   id="svg1"
   xml:space="preserve"
   xmlns="http://www.w3.org/2000/svg"
   xmlns:svg="http://www.w3.org/2000/svg"><defs
     id="defs1" /><g
     id="layer_seminterrato"
     style="display:inline"><image
       width="1440"
       height="1860"
       preserveAspectRatio="none"
       style="display:inline;image-rendering:optimizeQuality"
       href="images/seminterrato.png"
       id="seminterrato_img"
       x="0"
       y="0"
       class="render-img" /><image
       width="1440"
       height="1860"
       preserveAspectRatio="none"
       style="display:inline;image-rendering:optimizeQuality"
       href="images/seminterrato_n.png"
       id="seminterrato_bg_night"
       x="0"
       y="0"
       class="render-img" /><g
       id="layer_seminterrato_interattivo"
       style="display:inline"><g
         id="layer_seminterrato_sensor"
         style="display:inline;fill:#ffcc00"><rect
           style="display:inline;opacity:0.299712;fill:#ffff00;fill-opacity:1;stroke:#000000;stroke-width:4.4051;stroke-dasharray:none;stroke-opacity:0.502315"
           id="sensor_sigenstor"
           width="86.858932"
           height="82.966431"
           x="796.79803"
           y="613.17828" /><rect
           style="display:inline;opacity:0.299712;fill:#ff0000;fill-opacity:1;stroke:#000000;stroke-width:4.4051;stroke-dasharray:none;stroke-opacity:0.502315"
           id="sensor_bollitore"
           width="88.032692"
           height="84.087593"
           x="443.02896"
           y="728.04492" /><text
           xml:space="preserve"
           style="font-size:105.723px;writing-mode:lr-tb;direction:ltr;opacity:0.299712;fill:#ff0000;fill-opacity:1;stroke:#f52727;stroke-width:41.1144;stroke-dasharray:none;stroke-opacity:0.944444"
           x="410.06549"
           y="1266.2914"
           id="sensor_seminterrato_temperature"><tspan
             style="font-style:normal;font-variant:normal;font-weight:bold;font-stretch:normal;font-size:105.723px;font-family:'Avenir Next';-inkscape-font-specification:'Avenir Next Bold';fill:#ff0000;fill-opacity:0.7;stroke:none;stroke-width:41.1144;stroke-dasharray:none;stroke-opacity:0.194444;paint-order:stroke fill markers"
             x="410.06549"
             y="1266.2914"
             id="tspan43">-Temp</tspan></text></g><g
         id="layer_seminterrato_power"
         style="display:inline;fill:#ffcc00" /><g
         id="layer_seminterrato_media"
         style="display:inline;fill:#ffcc00" /><g
         id="layer_seminterrato_light"
         style="display:inline;fill:#ffcc00"
         transform="matrix(3.7749082,0,0,3.7787087,1.1003035,0.91394362)"><path
           style="display:inline;opacity:0.299712;fill:#ffff00;fill-opacity:1;stroke-width:0.266525"
           d="m 59.675584,326.82542 69.997156,0.4146 0.27887,-33.02887 46.85069,0.41459 -0.69719,145.24404 -116.987271,-0.13819 z"
           id="light_monolocale" /><path
           style="display:inline;opacity:0.299712;fill:#ffff00;fill-opacity:1;stroke-width:0.26398"
           d="m 179.58563,294.85954 60.21916,0.29193 -0.6799,111.03211 -24.67043,-0.29196 0.0972,-79.50324 -3.01095,-0.0972 -0.38851,82.71451 27.97276,0.0973 0.0973,30.75034 -52.06045,-0.19463 0.67989,-86.99622 -8.15871,-0.19461 z"
           id="light_seminterrato_ingresso" /><path
           style="display:inline;opacity:0.299712;fill:#ff7f2a;fill-opacity:1;stroke-width:0.264583"
           d="m 60.803816,230.15804 66.163124,0.29232 -0.38976,93.64178 -66.358014,-0.4872 0.09744,-26.60169 h 43.459134 l -0.0974,-2.8258 -43.264251,-0.29234 z"
           id="light_seminterrato_bagno" /><path
           style="display:inline;opacity:0.299712;fill:#ff7f2a;fill-opacity:1;stroke-width:0.264583"
           d="m 132.52114,230.40164 108.01447,0.73082 -0.29232,58.61137 -108.20936,-0.58465 z"
           id="light_lavanderia" /><path
           style="display:inline;opacity:0.299712;fill:#800000;fill-opacity:1;stroke-width:0.264583"
           d="M 61.729516,72.301975 241.60747,73.276396 240.7305,220.56 60.852539,219.48814 Z"
           id="light_locale_tecnico" /><path
           style="opacity:0.299712;fill:#0000ff;fill-opacity:0.7;stroke-width:9.88488;stroke-opacity:0.194444;paint-order:stroke fill markers"
           d="m 272.56283,491.98978 2.64908,-165.40042 -25.5114,0.3502 -0.89572,122.78319 -1.40813,3.89413 H 55.339013 30.172838 l -0.06271,25.11358 122.921012,0.62013 -0.20631,12.63919 z"
           id="light_seminterrato_esterno_sud"
           class="light_esterno_sud" /></g><g
         id="layer_seminterrato_cover"
         transform="matrix(0.89264129,0,0,0.93534893,133.95018,176.90346)"><path
           style="opacity:1;fill:none;stroke:#000000;stroke-width:4.16232;stroke-dasharray:none;stroke-opacity:0.502315"
           d="m 117.12921,1632.8295 285.22593,1.1212"
           id="seminterrato_raffstore_sud" /><path
           style="opacity:0.299712;fill:none;stroke:#000000;stroke-width:4.16232;stroke-dasharray:none;stroke-opacity:0.502315"
           d="m 111.84725,974.70396 -1.17378,-72.31531 v 0"
           id="seminterrato_raffstore_bagno" /></g><g
         id="layer_seminterrato_climate"
         style="display:inline;fill:#ffcc00"><rect
           style="opacity:0.299712;fill:#ff6600;fill-opacity:1;stroke:#000000;stroke-width:4.4051;stroke-dasharray:none;stroke-opacity:0.502315"
           id="climate_nilan"
           width="89.206467"
           height="85.208755"
           x="796.79047"
           y="728.41187" /></g><g
         id="layer_seminterrato_binary_sensor"
         style="display:inline;fill:#ffcc00"><path
           style="display:inline;opacity:0.299712;fill:#ff0000;fill-opacity:0.7;stroke:none;stroke-width:115.75;stroke-dasharray:none;stroke-opacity:0.194444;paint-order:stroke fill markers"
           d="m 713.80168,1713.0809 88.8627,-7.3947"
           id="binary_sensor_seminterrato_porta" /></g></g></g><g
     id="layer_piano_terra"
     style="display:inline"><image
       width="1440"
       height="1860"
       preserveAspectRatio="none"
       style="display:inline;fill:#00ffff;image-rendering:optimizeQuality"
       href="images/piano_terra.png"
       id="piano_terra_img"
       x="0"
       y="0"
       class="render-img" /><image
       width="1440"
       height="1860"
       preserveAspectRatio="none"
       style="display:inline;image-rendering:optimizeQuality"
       href="images/piano_terra_n.png"
       id="piano_terra_bg_night"
       x="0"
       y="0"
       class="render-img" /><g
       id="layer_piano_terra_interattivo"
       style="display:inline"><g
         id="layer_piano_terra_sensor"
         style="display:inline;fill:#ffcc00"><text
           xml:space="preserve"
           style="font-size:105.723px;writing-mode:lr-tb;direction:ltr;display:inline;opacity:0.299712;fill:#ff0000;fill-opacity:1;stroke:#f52727;stroke-width:41.1144;stroke-dasharray:none;stroke-opacity:0.944444"
           x="242.9259"
           y="1178.563"
           id="sensor_piano_terra_temperature"><tspan
             style="font-style:normal;font-variant:normal;font-weight:bold;font-stretch:normal;font-size:105.723px;font-family:'Avenir Next';-inkscape-font-specification:'Avenir Next Bold';fill:#ff0000;fill-opacity:0.7;stroke:none;stroke-width:41.1144;stroke-dasharray:none;stroke-opacity:0.194444;paint-order:stroke fill markers"
             x="242.9259"
             y="1178.563"
             id="tspan43-4">-Temp</tspan></text></g><g
         id="layer_piano_terra_power"
         style="display:inline;fill:#ffcc00" /><g
         id="layer_piano_terra_media"
         style="display:inline;fill:#ffcc00" /><g
         id="layer_piano_terra_light"
         style="display:inline"
         transform="matrix(3.783019,0,0,3.7819817,-0.00163084,-0.44528434)"><path
           style="display:inline;opacity:0.299712;fill:#0000ff;fill-opacity:1;stroke-width:0.264583"
           d="m 272.57594,494.9913 -119.4759,-0.27559 0.27561,-14.74501 92.05295,0.13779 -0.13781,-30.04121 1.37804,-4.68535 h 4.40972 l 1.37804,-201.19356 23.56447,0.2756 z"
           id="light_piano_terra_esterno_sud"
           class="light_esterno_sud" /><path
           style="display:inline;opacity:0.299712;fill:#0000ff;fill-opacity:1;stroke-width:0.264583"
           d="m 276.00449,244.38457 -23.6784,-0.19488 1.26675,-203.215323 -123.75136,-0.828257 0.38977,-26.747833 7.50304,0.194884 v 0.97442 l 7.25943,0.194884 0.0974,1.315467 7.35687,0.146163 0.0974,1.364188 7.45432,0.146163 v 1.169305 l 7.30815,0.04872 0.0487,1.120583 0.53593,0.682094 6.28501,-0.194884 0.43849,0.682094 -0.0974,0.633373 7.35687,0.04872 0.2436,0.97442 -0.0487,0.48721 6.77222,-0.09744 0.43849,1.266747 6.77222,0.04872 0.29233,1.364188 6.86966,0.243605 0.29233,1.315467 81.80256,0.828257 -0.43847,71.766045 -1.80269,10.57246 -6.43117,-0.19489 z"
           id="light_esterno_nord" /><path
           style="display:inline;opacity:0.299712;fill:#0000ff;fill-opacity:1;stroke-width:0.264583"
           d="m 244.96922,450.27955 1.8514,-4.77467 -203.946135,-1.26674 0.682096,-122.87438 -23.1912,-0.0975 -0.779536,156.7842 225.578265,1.55908 z"
           id="light_balcone" /><path
           style="display:inline;opacity:0.299712;fill:#ffff00;fill-opacity:1;stroke-width:0.264583"
           d="m 240.9741,435.32221 -54.66497,-0.19489 0.58465,-104.31169 -1.94884,-71.2301 -0.87698,-12.86235 58.17289,0.0487 z"
           id="light_ingresso"
           class="light_vano_scale" /><path
           style="display:inline;opacity:0.299712;fill:#ffff00;fill-opacity:1;stroke-width:0.264583"
           d="m 155.85612,132.77398 28.9388,0.17225 -0.72347,113.79151 2.82498,84.12922 -32.21164,-0.24114 z"
           id="light_corridoio" /><path
           style="display:inline;opacity:0.299712;fill:#0000ff;fill-opacity:1;stroke-width:0.264583"
           d="M 24.942491,134.35872 44.78624,134.08311 45.199651,35.691188 H 25.907118 Z"
           id="light_esterno_ovest" /><path
           style="display:inline;opacity:0.299712;fill:#ff6600;fill-opacity:1;stroke-width:0.264583"
           d="m 53.881292,296.82942 v -58.0154 l 96.738278,0.55121 -0.2756,58.42881 z"
           id="light_bagno_padronale" /><path
           style="display:inline;opacity:0.299712;fill:#ff6600;fill-opacity:1;stroke-width:0.264583"
           d="m 53.982876,235.4199 96.759924,0.97443 0.38976,-54.17776 -97.052243,-0.58466 z"
           id="light_piano_terra_bagno" /><path
           style="display:inline;opacity:0.299712;fill:#ff6600;fill-opacity:1;stroke-width:0.264583"
           d="m 242.19021,243.56825 0.41341,-32.03939 -13.22917,-0.34451 0.20671,-28.31868 -41.89236,-0.27561 -0.34451,60.70258 z"
           id="light_ripostiglio" /><path
           style="display:inline;opacity:0.299712;fill:#ffff00;fill-opacity:1;stroke-width:0.264583"
           d="m 52.813571,434.20162 0.682096,-132.71603 96.759913,0.58465 -0.0974,28.74539 h -15.7856 l -0.0974,3.21559 2.87415,9.03139 -0.41341,10.47308 -2.82498,0.0689 -0.31006,61.28827 3.23839,6.20117 -1.72255,13.74592 z"
           id="light_camera_padronale" /><path
           style="display:inline;opacity:0.299712;fill:#ffff00;fill-opacity:1;stroke-width:0.264583"
           d="m 135.05463,434.83498 46.57728,0.34104 0.63338,-101.29096 -48.04437,-0.004 2.94556,9.30174 -0.44787,10.35251 -0.34451,61.49496 -2.80775,-0.13779 3.29007,6.28729 z"
           id="light_cabina_armadio" /><path
           style="display:inline;opacity:0.299712;fill:#ffff00;fill-opacity:1;stroke-width:0.264583"
           d="M 150.96408,177.76692 151.68755,50.367294 55.22488,49.781629 54.53586,177.14681 Z"
           id="light_camera_ospiti" /><path
           style="display:inline;opacity:0.299712;fill:#ffff00;fill-opacity:1;stroke-width:0.264583"
           d="m 156.37288,50.401746 87.09201,0.585666 -0.62011,114.101558 -34.55431,-0.24115 0.0689,13.29806 -20.46386,-0.17225 0.2756,-65.31901 -32.17719,-0.1378 z"
           id="light_studio" /></g><g
         id="layer_piano_terra_cover"
         style="display:inline"
         transform="matrix(0.89458394,0,0,0.93276152,132.6755,180.37114)"><path
           style="display:inline;opacity:1;fill:none;stroke:#000000;stroke-width:4.16232;stroke-dasharray:none;stroke-opacity:0.502315"
           d="m 98.348903,1616.0121 285.225937,1.121"
           id="cover_piano_terra_raffstore_sud" /><path
           style="display:inline;opacity:0.299712;fill:none;stroke:#000000;stroke-width:7.47461;stroke-dasharray:none;stroke-opacity:0.502315"
           d="m 85.179056,931.68644 0.288835,-78.63978 2.90493,2.37836"
           id="cover_piano_terra_raffstore_bagno_padronale" /><path
           style="display:inline;opacity:0.299712;fill:none;stroke:#000000;stroke-width:7.38679;stroke-dasharray:none;stroke-opacity:0.502315"
           d="m 86.717972,667.9521 0.299694,-74.02396 3.013961,2.23874"
           id="cover_piano_terra_raffstore_bagno" /><path
           style="display:inline;opacity:0.299712;fill:none;stroke:#000000;stroke-width:8.57717;stroke-dasharray:none;stroke-opacity:0.502315"
           d="M 92.51325,233.7958 93.513073,66.425701 95.221312,71.75128"
           id="cover_piano_terra_raffstore_camera_ospiti" /><path
           style="display:inline;opacity:0.299712;fill:none;stroke:#000000;stroke-width:8.05184;stroke-dasharray:none;stroke-opacity:0.502315"
           d="m 872.28609,442.26188 1.01041,-145.94963 1.72635,4.644"
           id="cover_piano_terra_sraffstore_tudio" /><path
           style="display:inline;fill:none;stroke:#000000;stroke-width:3.23689;stroke-dasharray:none;stroke-opacity:0.502315"
           d="m 670.02233,1615.8198 170.585,1.1336"
           id="cover_piano_terra_raffstore_vano_scale"
           class="raffstore_vano_scale" /></g><g
         id="layer_piano_terra_climate"
         style="display:inline;fill:#ffcc00" /><g
         id="layer_piano_terra_binary_sensor"
         style="display:inline;fill:#ffcc00" /></g></g><g
     id="layer_piano_primo"
     style="display:inline"><image
       width="1440"
       height="1860"
       preserveAspectRatio="none"
       style="image-rendering:optimizeQuality"
       href="images/piano_primo.png"
       id="piano_primo_img"
       x="0"
       y="0"
       class="render-img" /><image
       width="1440"
       height="1860"
       preserveAspectRatio="none"
       style="display:inline;image-rendering:optimizeQuality"
       href="images/piano_primo_n.png"
       id="piano_primo_bg_night"
       x="0"
       y="0"
       class="render-img" /><g
       id="layer_piano_primo_interattivo"
       style="display:inline"><g
         id="layer_piano_primo_sensor"
         style="display:inline;fill:#ffcc00"
         transform="translate(56.715857,53.769579)"><text
           xml:space="preserve"
           style="font-size:105.723px;writing-mode:lr-tb;direction:ltr;display:inline;opacity:0.299712;fill:#ff0000;fill-opacity:1;stroke:#f52727;stroke-width:41.1144;stroke-dasharray:none;stroke-opacity:0.944444"
           x="636.61554"
           y="821.32385"
           id="sensor_piano_primo_temperature"><tspan
             style="font-style:normal;font-variant:normal;font-weight:bold;font-stretch:normal;font-size:105.723px;font-family:'Avenir Next';-inkscape-font-specification:'Avenir Next Bold';fill:#ff0000;fill-opacity:0.7;stroke:none;stroke-width:41.1144;stroke-dasharray:none;stroke-opacity:0.194444;paint-order:stroke fill markers"
             x="636.61554"
             y="821.32385"
             id="tspan43-48">-Temp</tspan></text></g><g
         id="layer_piano_primo_power"
         style="display:inline;fill:#ffcc00" /><g
         id="layer_piano_primo_media"
         style="display:inline;fill:#ffcc00" /><g
         id="layer_piano_primo_light"
         style="display:inline"
         transform="matrix(3.7895726,0,0,3.7828039,-1.4180075,-1.588514)"><path
           style="display:inline;opacity:0.299712;fill:#0000ff;fill-opacity:1;stroke-width:0.264583"
           d="M 254.51854,84.774552 V 29.427487 L 121.41275,28.842837 121.60763,12.667462 119.65879,1.5590722 119.51263,0.77953612 42.046228,0.43848906 41.802624,83.410363 Z"
           id="light_terrazzo_nord" /><path
           style="display:inline;opacity:0.299712;fill:#ffff00;fill-opacity:1;stroke-width:0.264583"
           d="m 187.77076,392.10667 h 26.01702 l 0.29233,-76.39454 27.77097,0.19489 1.94884,-1.8514 0.87698,-110.79158 -65.45667,-0.26796 -133.193756,0.95357 -0.482311,179.35166 141.317817,0.96465 v 5.78776 z"
           id="light_soggiorno" /><path
           style="display:inline;opacity:0.299712;fill:#ffff00;fill-opacity:1;stroke-width:0.264583"
           d="m 186.44857,428.63878 0.3445,-38.65398 0.96463,2.20487 25.97602,-0.0689 0.3342,-76.44519 27.80752,0.21923 1.9123,-1.8392 -0.54811,115.00594 z"
           id="light_piano_primo_scala"
           class="light_vano_scale" /><path
           style="display:inline;opacity:0.299712;fill:#0000ff;fill-opacity:1;stroke-width:0.264583"
           d="m 184.31261,444.41731 0.2067,-5.16763 -8.68164,-0.20672 0.68902,-44.30392 -141.455619,-0.96462 0.482314,-84.19814 -24.046766,-0.13779 -0.964627,164.67555 173.908418,1.17134 z"
           id="light_terrazzo_sud" /><path
           style="display:inline;opacity:0.299712;fill:#ff6600;fill-opacity:1;stroke-width:0.264583"
           d="m 179.17941,202.98502 0.55122,-91.74289 -29.59337,-0.27561 0.24116,-16.329749 -102.870554,-0.75792 -1.481392,110.070799 z"
           id="light_cucina" /><path
           style="display:inline;opacity:0.299712;fill:#ff6600;fill-opacity:1;stroke-width:0.264583"
           d="m 244.49842,200.02224 0.0689,-6.45955 -13.72871,-0.0344 0.0172,-29.85176 -48.04186,-0.25838 -0.20671,36.20796 z"
           id="light_dispensa" /><path
           style="display:inline;opacity:0.299712;fill:#ff6600;fill-opacity:1;stroke-width:0.264583"
           d="m 244.82306,144.75011 0.34105,-49.622343 -61.9244,-0.365409 -0.34105,63.629632 25.82213,0.14617 0.0731,-13.98293 z"
           id="light_piano_primo_bagno" /></g><g
         id="layer_piano_primo_cover"
         style="display:inline"
         transform="matrix(0.88610744,0,0,0.93013187,137.2669,183.08448)"><path
           style="display:inline;fill:none;stroke:#000000;stroke-width:3.29722;stroke-dasharray:none;stroke-opacity:0.502315"
           d="m 668.35976,1594.4152 177.22999,1.1322"
           id="cover_piano_primo_raffstore_vano_scale"
           class="raffstore_vano_scale" /><path
           style="display:inline;opacity:0.299712;fill:none;stroke:#000000;stroke-width:5.86304;stroke-dasharray:none;stroke-opacity:0.502315"
           d="m 53.449258,589.24822 0.399183,-195.88061 0.682014,6.23277"
           id="cover_raffstore_cucina" /><path
           style="display:inline;opacity:0.299712;fill:none;stroke:#000000;stroke-width:5.75566;stroke-dasharray:none;stroke-opacity:0.502315"
           d="m 50.167601,1357.6022 0.400969,-187.9357 0.685043,5.98"
           id="cover_raffstore_soggiorno_ovest" /><path
           style="display:inline;opacity:0.299712;fill:none;stroke:#000000;stroke-width:4.92561;stroke-dasharray:none;stroke-opacity:0.502315"
           d="m 881.19456,932.14717 0.43678,-46.43007 2.05467,1.47736"
           id="cover_raffstore_vela_soggiorno" /><path
           style="display:inline;opacity:0.299712;fill:none;stroke:#000000;stroke-width:5.48443;stroke-dasharray:none;stroke-opacity:0.502315"
           d="m 883.54879,390.73456 1.40835,-39.15371 2.99633,1.24585"
           id="cover_raffstore_vela_bagno" /><path
           style="display:inline;opacity:1;fill:none;stroke:#000000;stroke-width:4.31853;stroke-dasharray:none;stroke-opacity:0.502315"
           d="m 65.974751,1415.042 307.645219,1.119"
           id="cover_piano_primo_raffstore_sud" /><path
           style="display:inline;fill:none;stroke:#000000;stroke-width:3.00973;stroke-dasharray:none;stroke-opacity:0.502315"
           d="m 377.0977,208.38261 100.20889,1.66852"
           id="cover_piano_primo_porta_nord" /></g><g
         id="layer_piano_primo_climate"
         style="display:inline;fill:#ffcc00" /><g
         id="layer_piano_primo_binary_sensor"
         style="display:inline;fill:#ffcc00" /></g></g><g
     id="layer_tetto"
     style="display:inline"><image
       width="1440"
       height="1860"
       preserveAspectRatio="none"
       style="image-rendering:optimizeQuality"
       href="images/tetto.png"
       id="tetto_img"
       x="0"
       y="0"
       class="render-img" /><image
       width="1440"
       height="1860"
       preserveAspectRatio="none"
       style="image-rendering:optimizeQuality"
       href="images/tetto_n.png"
       id="tetto_bg_night"
       x="0"
       y="0"
       class="render-img" /><g
       id="layer_tetto_interattivo"><g
         id="layer_tetto_sensor"
         style="display:inline;fill:#ffcc00" /><g
         id="layer_tetto_power"
         style="display:inline;fill:#ffcc00" /><g
         id="layer_tetto_media"
         style="display:inline;fill:#ffcc00" /><g
         id="layer_tetto_light" /><g
         id="layer_tetto_cover"
         style="display:inline" /><g
         id="layer_tetto_climate"
         style="display:inline;fill:#ffcc00" /><g
         id="layer_tetto_binary_sensor"
         style="display:inline;fill:#ffcc00" /></g></g></svg>
